# xmcd CD database file
#
# Track frame offsets:
#	150
#	15183
#	31200
#	50131
#	68678
#	86856
#	106743
#	121614
#	141875
#	157850
#	176251
#	190164
#	211996
#	233500
#	250879
#	268089
#	286102
#	309013
#	326159
#	342009
#
# Disc length: 4775 seconds
#
# Revision: 1
# Processed by: cddbd v1.5.2PL0 Copyright (c) Steve Scherf et al.
# Submitted via: CDex 1.51
#
DISCID=0012a514
DTITLE=Various Artist - ZM-PCP-8
DYEAR=1900
DGENRE=Blues
TTITLE0=Will Young - Come On
TTITLE1=Olly Murs - Dance With Me Tonight
TTITLE2=Kelly Rowland - Down For Whatever
TTITLE3=One Direction - Gotta Be You
TTITLE4=James Morrison - I Won't Let You Go
TTITLE5=Bruno Mars - It Will Rain
TTITLE6=Ed Sheeran - Lego House
TTITLE7=Westlife - Lighthouse
TTITLE8=Wanted The - Lightning
TTITLE9=Kelly Clarkson - Mr Know It All
TTITLE10=Rebecca Ferguson - Nothing's Real But Love
TTITLE11=Coldplay - Paradise
TTITLE12=Florence and The Machine - Shake It Out
TTITLE13=Gym Class Heroes - Stereo Hearts
TTITLE14=JLS - Take A Chance On Me
TTITLE15=Katy Perry - The One That Got Away
TTITLE16=Snow Patrol - This Isn't Everything You Are
TTITLE17=Rihanna Ft Calvin Harris - We Found Love
TTITLE18=Charlene Sorala - Where You Will Go
TTITLE19=X Factor Finalists(2011) - Wishing On A Star
EXTD=
EXTT0=
EXTT1=
EXTT2=
EXTT3=
EXTT4=
EXTT5=
EXTT6=
EXTT7=
EXTT8=
EXTT9=
EXTT10=
EXTT11=
EXTT12=
EXTT13=
EXTT14=
EXTT15=
EXTT16=
EXTT17=
EXTT18=
EXTT19=
PLAYORDER=
